# xmcd CD database file
#
# Track frame offsets:
#	150
#	13487
#	25475
#	36510
#	48433
#	62366
#	76958
#	92112
#	104341
#	119041
#	131940
#	145985
#	158892
#	173602
#	185532
#	199018
#	214023
#	226039
#	237462
#	249394
#
# Disc length: 3505 seconds
#
# Revision: 0
# Processed by: cddbd v1.4PL0 Copyright (c) Steve Scherf et al.
# Submitted via: CDex 1.50beta10
#
DISCID=1f0daf14
DTITLE=Django Renardt - Suave
DYEAR=2001
DGENRE=Jazz
TTITLE0=Djangologie
TTITLE1=Oriental Shuffle
TTITLE2=Swing guitars
TTITLE3=Tears
TTITLE4=Hot lips
TTITLE5=When day is gone
TTITLE6=A little love, a little kiss
TTITLE7=St louis blues
TTITLE8=Minor swing
TTITLE9=Swinging with Django
TTITLE10=You, rascal you
TTITLE11=Souvenirs
TTITLE12=Daphné
TTITLE13=Stompin'at Decca
TTITLE14=Billets doux
TTITLE15=Swing 39
TTITLE16=Twelfth year
TTITLE17=I'll see you in my dreams
TTITLE18=Django's tiger
TTITLE19=Nuages
EXTD=YEAR: 2001
EXTT0=
EXTT1=
EXTT2=
EXTT3=
EXTT4=
EXTT5=
EXTT6=
EXTT7=
EXTT8=
EXTT9=
EXTT10=
EXTT11=
EXTT12=
EXTT13=
EXTT14=
EXTT15=
EXTT16=
EXTT17=
EXTT18=
EXTT19=
PLAYORDER=
